<svg id="svg" version="1.1" xmlns="http://www.w3.org/2000/svg" xmlns:xlink="http://www.w3.org/1999/xlink" width="400" height="404.02010050251255" viewBox="0, 0, 400,404.02010050251255"><g id="svgg"><path id="path0" d="M206.662 0.500 C 206.764 0.665,206.657 0.800,206.424 0.800 C 206.155 0.800,206.000 2.192,206.000 4.600 C 206.000 7.711,206.109 8.400,206.600 8.400 C 207.091 8.400,207.200 7.711,207.200 4.601 L 207.200 0.802 303.500 0.701 L 399.800 0.600 303.138 0.400 C 249.974 0.290,206.560 0.335,206.662 0.500 M206.429 20.828 C 206.456 27.443,206.370 32.963,206.239 33.095 C 205.685 33.649,205.984 56.289,206.551 56.759 C 206.983 57.118,207.146 57.050,207.304 56.444 C 207.655 55.103,207.098 8.800,206.731 8.800 C 206.539 8.800,206.403 14.200,206.429 20.828 M206.699 50.700 C 206.632 53.945,206.577 51.290,206.577 44.800 C 206.577 38.310,206.632 35.655,206.699 38.900 C 206.766 42.145,206.766 47.455,206.699 50.700 M288.769 58.500 C 288.285 60.082,286.833 60.000,315.225 60.000 L 341.979 60.000 342.097 73.300 C 342.162 80.615,342.259 108.186,342.311 134.570 C 342.363 160.953,342.495 182.628,342.603 182.737 C 342.711 182.845,342.800 155.183,342.800 121.267 C 342.800 87.350,342.665 59.621,342.500 59.647 C 340.603 59.947,289.200 59.510,289.200 59.194 C 289.200 58.923,298.019 58.824,315.800 58.894 C 330.430 58.952,342.400 58.865,342.400 58.700 C 342.400 58.438,288.849 58.239,288.769 58.500 M252.039 165.753 C 251.671 166.197,251.799 166.349,252.690 166.521 C 253.300 166.639,254.363 166.847,255.051 166.984 C 255.912 167.155,256.366 167.066,256.507 166.698 C 256.645 166.339,256.365 166.152,255.656 166.130 C 252.758 166.041,252.369 165.973,252.600 165.600 C 252.967 165.007,252.568 165.115,252.039 165.753 M246.562 165.971 C 246.469 166.064,245.893 166.164,245.283 166.193 C 244.674 166.222,244.000 166.346,243.787 166.469 C 243.574 166.592,242.909 166.666,242.309 166.633 C 241.709 166.601,241.126 166.817,241.012 167.113 C 240.899 167.409,240.624 167.539,240.403 167.402 C 240.181 167.265,240.000 167.363,240.000 167.619 C 240.000 167.896,239.720 167.978,239.312 167.822 C 238.934 167.676,238.758 167.692,238.922 167.855 C 239.086 168.019,238.644 168.344,237.940 168.577 C 237.236 168.809,236.582 169.239,236.487 169.530 C 236.368 169.892,236.829 169.797,237.941 169.230 C 238.836 168.774,239.830 168.400,240.151 168.400 C 240.471 168.400,240.805 168.184,240.894 167.919 C 240.982 167.655,241.492 167.401,242.027 167.355 C 244.439 167.147,245.200 167.008,245.200 166.773 C 245.200 166.635,246.501 166.483,248.090 166.437 C 251.634 166.333,252.014 166.124,248.994 165.939 C 247.750 165.862,246.655 165.877,246.562 165.971 M257.500 166.676 C 256.696 166.886,256.554 167.459,257.300 167.482 C 258.010 167.505,258.965 167.765,259.200 168.000 C 259.828 168.628,261.200 169.163,261.200 168.780 C 261.200 168.545,261.408 168.481,261.662 168.638 C 261.952 168.817,262.015 168.748,261.832 168.451 C 261.671 168.191,261.328 168.005,261.070 168.037 C 260.074 168.160,259.563 167.984,259.800 167.600 C 259.941 167.372,259.596 167.200,259.000 167.200 C 258.404 167.200,258.059 167.028,258.200 166.800 C 258.336 166.580,258.392 166.421,258.324 166.446 C 258.256 166.472,257.885 166.575,257.500 166.676 M262.499 169.297 C 262.565 169.496,262.791 169.660,263.000 169.660 C 263.209 169.660,263.435 169.496,263.501 169.297 C 263.568 169.097,263.342 168.933,263.000 168.933 C 262.658 168.933,262.432 169.097,262.499 169.297 M264.162 169.538 C 264.319 169.792,264.232 170.000,263.969 170.000 C 263.705 170.000,264.190 170.539,265.045 171.198 C 267.513 173.099,271.200 176.844,271.200 177.448 C 271.200 177.752,271.360 178.000,271.557 178.000 C 271.753 178.000,272.045 178.495,272.206 179.100 C 272.367 179.705,272.582 179.974,272.683 179.698 C 272.785 179.421,273.078 179.299,273.334 179.427 C 273.590 179.555,273.485 179.401,273.100 179.086 C 272.715 178.770,272.400 178.227,272.400 177.879 C 272.400 177.532,271.605 176.441,270.634 175.456 C 269.663 174.471,268.943 173.560,269.034 173.432 C 269.125 173.305,269.095 173.275,268.967 173.367 C 268.655 173.589,267.288 172.275,267.470 171.928 C 267.549 171.778,267.402 171.525,267.145 171.366 C 266.852 171.185,266.784 171.250,266.962 171.538 C 267.119 171.792,267.057 172.000,266.824 172.000 C 266.591 172.000,266.400 171.816,266.400 171.590 C 266.400 171.365,265.939 171.005,265.376 170.791 C 264.813 170.577,264.456 170.234,264.582 170.028 C 264.709 169.823,264.602 169.525,264.345 169.366 C 264.052 169.185,263.984 169.250,264.162 169.538 M140.187 170.659 C 139.482 171.174,139.489 171.200,140.324 171.200 C 140.806 171.200,141.203 170.975,141.206 170.700 C 141.211 170.316,141.283 170.312,141.518 170.681 C 141.708 170.980,142.880 171.164,144.612 171.167 C 146.145 171.169,148.011 171.352,148.757 171.574 C 149.503 171.795,150.256 171.889,150.429 171.782 C 150.603 171.675,150.858 171.770,150.996 171.993 C 151.353 172.572,152.667 172.498,152.667 171.900 C 152.667 171.596,152.104 171.393,151.233 171.382 C 150.193 171.369,149.835 171.204,149.929 170.782 C 150.023 170.355,149.937 170.318,149.606 170.642 C 149.293 170.949,148.643 170.968,147.478 170.703 C 144.729 170.077,141.013 170.055,140.187 170.659 M234.800 170.509 C 234.800 170.716,234.532 170.783,234.205 170.657 C 233.877 170.532,233.652 170.564,233.705 170.730 C 233.757 170.895,233.318 171.513,232.730 172.104 C 232.141 172.694,231.594 172.983,231.515 172.746 C 231.436 172.509,231.021 172.967,230.591 173.764 C 230.162 174.561,229.593 175.129,229.326 175.027 C 229.054 174.923,228.927 175.066,229.038 175.354 C 229.146 175.637,228.541 176.583,227.692 177.457 C 226.843 178.332,226.229 179.287,226.326 179.579 C 226.443 179.929,226.327 180.002,225.990 179.794 C 225.653 179.586,225.575 179.635,225.762 179.938 C 226.214 180.671,226.574 180.490,227.379 179.128 C 228.163 177.800,229.195 176.504,230.676 174.984 C 231.157 174.489,231.442 173.976,231.309 173.842 C 231.176 173.709,231.242 173.600,231.456 173.600 C 231.670 173.600,232.375 173.166,233.023 172.635 C 233.670 172.104,234.633 171.324,235.161 170.902 C 235.904 170.308,235.972 170.133,235.461 170.133 C 235.098 170.133,234.800 170.303,234.800 170.509 M137.045 170.872 C 137.156 171.053,137.057 171.200,136.824 171.200 C 136.591 171.200,136.400 171.402,136.400 171.649 C 136.400 171.965,136.572 171.955,136.982 171.615 C 137.303 171.349,137.716 171.225,137.902 171.339 C 138.087 171.454,138.473 171.402,138.760 171.225 C 139.112 171.007,138.886 170.845,138.062 170.724 C 137.391 170.625,136.933 170.692,137.045 170.872 M134.800 171.564 C 134.800 171.790,134.500 171.860,134.134 171.719 C 133.687 171.548,133.564 171.617,133.758 171.932 C 134.102 172.489,135.600 172.563,135.600 172.024 C 135.600 171.817,135.420 171.536,135.200 171.400 C 134.980 171.264,134.800 171.338,134.800 171.564 M131.094 172.922 C 131.034 173.099,130.629 173.296,130.193 173.360 C 129.757 173.424,129.435 173.639,129.479 173.838 C 129.597 174.378,130.800 174.531,130.800 174.006 C 130.800 173.757,130.968 173.656,131.172 173.783 C 131.377 173.909,131.658 173.830,131.796 173.607 C 131.934 173.383,132.397 173.200,132.824 173.200 C 133.251 173.200,133.600 173.046,133.600 172.857 C 133.600 172.426,131.240 172.486,131.094 172.922 M153.401 172.801 C 153.536 173.021,153.907 173.200,154.224 173.200 C 154.541 173.200,154.800 173.391,154.800 173.624 C 154.800 173.857,154.968 173.944,155.172 173.817 C 155.377 173.691,155.658 173.770,155.796 173.993 C 155.934 174.217,156.262 174.394,156.524 174.387 C 156.789 174.380,156.692 174.141,156.306 173.848 C 155.925 173.558,155.745 173.179,155.906 173.006 C 156.068 172.832,155.930 172.779,155.600 172.888 C 155.270 172.996,154.585 172.932,154.077 172.744 C 153.483 172.524,153.242 172.544,153.401 172.801 M157.700 174.265 C 157.425 174.376,157.200 174.654,157.200 174.882 C 157.200 175.116,157.491 175.058,157.865 174.749 C 158.435 174.279,158.502 174.285,158.333 174.796 C 158.131 175.406,158.856 176.400,159.502 176.400 C 159.699 176.400,160.386 177.030,161.028 177.800 C 162.325 179.355,162.609 179.475,162.943 178.605 C 163.075 178.261,162.966 178.050,162.686 178.105 C 162.419 178.157,162.249 177.962,162.310 177.670 C 162.370 177.379,162.242 177.250,162.025 177.385 C 161.641 177.622,160.034 176.306,159.967 175.700 C 159.948 175.535,159.829 175.310,159.703 175.200 C 159.576 175.090,159.601 175.225,159.759 175.500 C 159.918 175.775,159.852 176.000,159.614 176.000 C 159.375 176.000,159.009 175.550,158.800 175.000 C 158.591 174.450,158.370 174.014,158.310 174.032 C 158.249 174.049,157.975 174.154,157.700 174.265 M127.985 175.018 C 127.703 175.358,127.221 175.540,126.915 175.423 C 126.609 175.305,126.468 175.387,126.603 175.605 C 126.737 175.822,126.577 176.000,126.247 176.000 C 125.917 176.000,125.519 176.208,125.362 176.462 C 125.168 176.775,125.257 176.815,125.638 176.586 C 125.947 176.401,125.750 176.730,125.200 177.318 C 124.650 177.905,123.986 178.389,123.724 178.393 C 123.053 178.403,122.796 178.946,123.172 179.555 C 123.401 179.925,124.204 179.331,126.010 177.452 C 127.396 176.011,128.708 174.943,128.926 175.078 C 129.149 175.216,129.198 175.121,129.038 174.862 C 128.671 174.267,128.599 174.278,127.985 175.018 M162.986 179.223 C 162.804 179.517,162.949 179.920,163.339 180.205 C 163.703 180.471,164.000 180.893,164.000 181.144 C 164.000 181.395,164.147 181.600,164.327 181.600 C 164.506 181.600,165.259 182.770,166.000 184.200 C 167.410 186.922,167.829 187.334,167.829 186.000 C 167.829 185.560,167.657 185.200,167.448 185.200 C 167.238 185.200,167.186 185.081,167.331 184.936 C 167.476 184.791,167.247 184.428,166.822 184.130 C 166.381 183.821,166.112 183.257,166.197 182.817 C 166.306 182.247,166.179 182.110,165.707 182.291 C 165.283 182.454,165.166 182.379,165.358 182.068 C 165.517 181.811,165.437 181.600,165.181 181.600 C 164.904 181.600,164.822 181.320,164.978 180.912 C 165.124 180.534,165.111 180.355,164.951 180.515 C 164.791 180.675,164.353 180.338,163.977 179.765 C 163.489 179.021,163.206 178.866,162.986 179.223 M122.276 180.546 C 122.127 180.933,121.820 181.136,121.593 180.996 C 121.366 180.855,121.217 180.889,121.262 181.070 C 121.372 181.510,119.923 184.400,119.593 184.400 C 119.450 184.400,119.325 184.625,119.314 184.900 C 119.304 185.175,119.165 185.715,119.005 186.100 C 118.831 186.520,118.892 186.800,119.157 186.800 C 119.401 186.800,119.600 186.453,119.600 186.029 C 119.600 185.604,119.870 184.987,120.200 184.657 C 120.530 184.327,120.800 183.864,120.800 183.629 C 120.800 183.393,120.991 183.200,121.224 183.200 C 121.457 183.200,121.536 183.020,121.400 182.800 C 121.264 182.580,121.343 182.400,121.576 182.400 C 121.809 182.400,122.000 182.145,122.000 181.833 C 122.000 181.522,122.207 181.198,122.460 181.113 C 122.713 181.029,122.836 180.708,122.733 180.400 C 122.591 179.972,122.483 180.006,122.276 180.546 M273.758 180.246 C 273.280 180.443,273.497 182.400,273.997 182.400 C 274.163 182.400,274.408 182.940,274.540 183.600 C 274.787 184.833,275.467 185.273,275.467 184.200 C 275.467 183.870,275.317 183.600,275.133 183.600 C 274.950 183.600,274.800 183.409,274.800 183.176 C 274.800 182.943,275.025 182.869,275.300 183.011 C 275.575 183.153,275.368 182.918,274.840 182.487 C 274.171 181.943,273.947 181.447,274.102 180.853 C 274.225 180.384,274.297 180.014,274.263 180.032 C 274.228 180.049,274.001 180.145,273.758 180.246 M224.744 182.426 C 224.189 182.911,223.982 183.329,224.242 183.440 C 224.731 183.648,224.508 185.486,223.952 185.830 C 223.759 185.949,223.600 186.407,223.600 186.847 C 223.600 187.287,223.464 187.563,223.297 187.460 C 222.989 187.269,223.013 194.741,223.326 196.200 C 223.420 196.640,223.295 197.260,223.049 197.577 C 222.715 198.006,222.717 198.083,223.058 197.879 C 223.563 197.577,224.136 198.657,223.778 199.236 C 223.654 199.436,223.765 199.600,224.025 199.600 C 224.359 199.600,224.336 199.799,223.949 200.277 C 223.481 200.853,223.483 200.903,223.963 200.614 C 224.398 200.352,224.475 200.471,224.300 201.137 C 224.129 201.792,224.254 202.000,224.817 202.000 C 225.510 202.000,225.520 201.907,224.974 200.600 C 224.652 199.830,224.504 199.200,224.644 199.200 C 224.784 199.200,224.673 198.929,224.399 198.599 C 224.125 198.268,223.901 196.963,223.903 195.699 C 223.904 194.434,223.713 193.279,223.478 193.130 C 223.181 192.943,223.196 192.687,223.526 192.289 C 224.089 191.611,224.005 189.603,223.413 189.594 C 223.141 189.590,223.136 189.488,223.400 189.294 C 223.620 189.132,223.863 188.550,223.939 188.000 C 224.015 187.450,224.263 186.775,224.488 186.500 C 224.713 186.225,224.784 186.000,224.644 186.000 C 224.504 186.000,224.652 185.370,224.974 184.600 C 225.296 183.830,225.472 183.200,225.366 183.200 C 225.259 183.200,225.365 182.840,225.600 182.400 C 226.144 181.383,225.929 181.390,224.744 182.426 M393.300 182.710 C 389.945 182.771,387.200 182.971,387.200 183.155 C 387.200 183.688,399.074 183.728,399.402 183.196 C 399.790 182.568,400.042 182.588,393.300 182.710 M352.941 183.300 C 352.654 183.758,375.698 183.655,376.400 183.195 C 376.798 182.934,372.984 182.835,365.064 182.901 C 358.499 182.955,353.044 183.135,352.941 183.300 M275.200 186.176 C 275.200 186.713,275.347 187.244,275.527 187.355 C 275.707 187.466,275.793 188.360,275.719 189.342 C 275.628 190.553,275.781 191.324,276.193 191.735 C 276.527 192.069,276.797 192.761,276.794 193.271 C 276.789 193.989,276.705 194.069,276.421 193.621 C 276.135 193.168,275.995 193.281,275.779 194.139 C 275.459 195.415,275.704 195.799,276.616 195.449 C 277.463 195.124,277.056 187.893,276.155 187.266 C 275.702 186.950,275.693 186.388,276.130 185.700 C 276.334 185.378,276.225 185.200,275.824 185.200 C 275.429 185.200,275.200 185.559,275.200 186.176 M167.889 188.077 C 168.014 188.585,168.268 189.197,168.454 189.437 C 168.641 189.677,168.690 189.977,168.564 190.103 C 168.438 190.228,168.544 190.722,168.800 191.199 C 169.073 191.709,169.283 194.116,169.309 197.034 C 169.334 199.765,169.415 202.000,169.490 202.000 C 169.911 202.000,170.252 200.099,169.939 199.500 C 169.737 199.115,169.723 198.800,169.909 198.800 C 170.094 198.800,170.235 197.737,170.223 196.438 C 170.210 195.140,170.079 194.151,169.932 194.242 C 169.784 194.333,169.718 193.598,169.785 192.609 C 169.852 191.620,169.747 190.909,169.553 191.029 C 169.150 191.278,169.125 191.182,169.036 189.003 C 168.989 187.877,168.777 187.368,168.316 187.279 C 167.816 187.183,167.716 187.370,167.889 188.077 M117.481 189.466 C 117.621 189.832,117.570 190.029,117.368 189.904 C 117.159 189.774,117.038 190.530,117.089 191.655 C 117.138 192.743,117.033 193.544,116.855 193.434 C 116.678 193.325,116.533 193.857,116.533 194.618 C 116.533 195.890,117.141 196.643,117.246 195.500 C 117.397 193.835,117.593 192.429,117.843 191.200 C 118.000 190.430,118.174 189.575,118.229 189.300 C 118.284 189.025,118.081 188.800,117.777 188.800 C 117.427 188.800,117.318 189.043,117.481 189.466 M275.639 197.753 C 275.289 198.175,275.305 198.355,275.708 198.509 C 276.022 198.630,276.259 198.406,276.293 197.956 C 276.361 197.055,276.248 197.019,275.639 197.753 M116.612 199.667 C 116.958 201.633,117.560 202.467,117.426 200.795 C 117.241 198.496,117.216 198.400,116.794 198.400 C 116.558 198.400,116.482 198.930,116.612 199.667 M274.643 201.033 C 274.296 201.936,274.329 202.002,275.000 201.745 C 275.330 201.618,275.600 201.264,275.600 200.957 C 275.600 200.199,274.943 200.251,274.643 201.033 M117.397 203.267 C 117.519 203.914,117.402 204.409,117.099 204.526 C 116.825 204.632,116.991 204.700,117.470 204.676 C 118.118 204.645,118.259 204.477,118.024 204.017 C 117.850 203.678,117.593 203.130,117.452 202.800 C 117.311 202.470,117.286 202.680,117.397 203.267 M168.785 202.500 C 168.298 205.722,168.302 205.780,168.951 205.240 C 169.303 204.948,169.480 204.530,169.344 204.310 C 169.209 204.090,169.324 203.771,169.600 203.600 C 170.129 203.273,169.820 202.400,169.176 202.400 C 168.969 202.400,168.793 202.445,168.785 202.500 M224.800 202.800 C 224.800 203.020,224.991 203.200,225.224 203.200 C 225.457 203.200,225.536 203.380,225.400 203.600 C 225.264 203.820,225.364 204.000,225.623 204.000 C 225.896 204.000,226.006 204.335,225.884 204.801 C 225.751 205.310,225.831 205.504,226.105 205.335 C 226.366 205.174,226.447 205.301,226.310 205.658 C 226.174 206.012,226.546 206.614,227.242 207.168 C 227.879 207.675,228.400 208.340,228.400 208.645 C 228.400 208.950,228.580 209.200,228.800 209.200 C 229.020 209.200,229.200 209.391,229.200 209.624 C 229.200 209.857,228.975 209.934,228.700 209.795 C 228.425 209.656,228.730 209.994,229.377 210.547 C 230.024 211.100,230.699 211.462,230.877 211.353 C 231.195 211.156,231.373 211.814,231.214 212.600 C 231.170 212.820,231.267 212.867,231.430 212.703 C 231.812 212.321,232.860 213.179,232.575 213.641 C 232.456 213.833,232.667 213.872,233.045 213.727 C 233.547 213.535,233.644 213.606,233.404 213.994 C 233.195 214.332,233.232 214.428,233.506 214.258 C 233.742 214.112,234.207 214.264,234.539 214.596 C 234.871 214.928,235.293 215.200,235.476 215.200 C 235.658 215.200,236.301 215.657,236.904 216.216 C 237.507 216.775,238.000 217.034,238.000 216.793 C 238.000 216.547,238.221 216.486,238.500 216.653 C 238.840 216.857,238.824 216.737,238.451 216.277 C 238.149 215.905,237.590 215.600,237.209 215.600 C 236.828 215.600,236.041 215.159,235.458 214.619 C 234.876 214.080,234.400 213.746,234.400 213.878 C 234.400 214.009,233.969 213.652,233.442 213.083 C 232.915 212.515,232.415 212.118,232.331 212.203 C 232.246 212.287,231.822 211.828,231.389 211.183 C 230.817 210.333,230.380 210.071,229.800 210.231 C 229.241 210.386,229.158 210.342,229.525 210.087 C 230.016 209.746,228.479 207.302,227.500 206.867 C 227.335 206.793,227.200 206.543,227.200 206.310 C 227.200 205.630,225.489 202.400,225.129 202.400 C 224.948 202.400,224.800 202.580,224.800 202.800 M273.590 203.426 C 273.099 204.718,273.094 204.674,273.755 204.927 C 274.144 205.077,274.249 204.910,274.108 204.370 C 273.997 203.947,274.108 203.600,274.353 203.600 C 274.599 203.600,274.800 203.330,274.800 203.000 C 274.800 202.034,274.014 202.310,273.590 203.426 M117.742 206.162 C 117.774 206.691,117.908 207.057,118.040 206.975 C 118.435 206.731,119.316 208.689,119.024 209.162 C 118.857 209.432,119.108 209.598,119.676 209.594 C 120.201 209.590,120.411 209.461,120.163 209.294 C 119.923 209.132,119.404 208.145,119.009 207.100 C 118.234 205.049,117.650 204.616,117.742 206.162 M271.880 206.900 C 271.331 207.836,270.504 208.944,270.041 209.362 C 269.579 209.781,269.206 210.411,269.213 210.762 C 269.224 211.345,269.267 211.345,269.713 210.760 C 269.981 210.408,270.380 210.075,270.600 210.020 C 270.820 209.965,270.953 209.753,270.896 209.549 C 270.839 209.345,271.063 209.074,271.394 208.947 C 271.725 208.820,271.879 208.528,271.737 208.297 C 271.594 208.067,271.730 207.681,272.039 207.439 C 273.073 206.630,273.651 205.679,273.257 205.436 C 273.048 205.306,272.428 205.965,271.880 206.900 M167.456 207.078 C 167.315 207.218,167.200 207.663,167.200 208.067 C 167.200 208.470,167.023 208.800,166.808 208.800 C 166.592 208.800,166.302 209.250,166.164 209.800 C 166.026 210.350,165.753 210.800,165.557 210.800 C 165.360 210.800,165.200 211.070,165.200 211.400 C 165.200 212.060,157.902 219.600,157.263 219.600 C 156.725 219.600,154.233 220.925,154.067 221.300 C 153.993 221.465,153.509 221.600,152.990 221.600 C 151.686 221.600,151.391 222.267,152.593 222.496 C 153.133 222.600,153.481 222.530,153.364 222.342 C 153.174 222.035,154.080 221.815,154.930 221.963 C 155.111 221.994,155.150 221.843,155.016 221.626 C 154.882 221.410,155.589 220.861,156.586 220.406 C 157.584 219.952,158.406 219.450,158.413 219.290 C 158.431 218.859,160.354 217.536,161.128 217.422 C 161.497 217.368,161.808 217.071,161.818 216.762 C 161.828 216.453,162.053 216.245,162.318 216.300 C 162.583 216.355,162.800 216.130,162.800 215.800 C 162.800 215.470,163.050 215.200,163.357 215.200 C 163.663 215.200,164.026 214.750,164.164 214.200 C 164.302 213.650,164.602 213.200,164.831 213.200 C 165.060 213.200,165.144 213.032,165.017 212.827 C 164.890 212.622,165.190 212.172,165.682 211.827 C 166.175 211.482,166.426 211.200,166.240 211.200 C 166.054 211.200,166.103 210.958,166.348 210.663 C 166.593 210.368,166.660 209.979,166.497 209.799 C 166.333 209.620,166.524 209.589,166.921 209.732 C 167.351 209.886,167.543 209.831,167.397 209.595 C 167.263 209.378,167.373 209.200,167.643 209.200 C 167.913 209.200,168.020 209.086,167.881 208.947 C 167.742 208.808,167.802 208.369,168.015 207.972 C 168.394 207.264,167.961 206.572,167.456 207.078 M120.243 210.967 C 120.376 211.315,120.646 211.600,120.843 211.600 C 121.039 211.600,121.200 211.851,121.200 212.157 C 121.200 212.464,121.485 212.824,121.833 212.957 C 122.822 213.337,123.056 213.221,122.400 212.678 C 122.070 212.405,121.607 211.836,121.371 211.415 C 120.834 210.453,119.904 210.083,120.243 210.967 M268.152 211.339 C 267.905 211.593,266.900 212.459,265.918 213.264 C 264.461 214.460,263.277 216.494,264.467 215.759 C 264.650 215.645,264.803 215.248,264.806 214.876 C 264.811 214.293,264.866 214.283,265.200 214.800 C 265.531 215.313,265.589 215.298,265.594 214.700 C 265.597 214.315,265.774 214.000,265.986 214.000 C 266.544 214.000,268.881 211.635,268.729 211.225 C 268.658 211.035,268.398 211.086,268.152 211.339 M122.200 214.000 C 122.064 214.220,122.154 214.400,122.400 214.400 C 122.646 214.400,122.733 214.584,122.594 214.810 C 122.455 215.035,122.579 215.170,122.870 215.110 C 123.162 215.049,123.362 215.204,123.316 215.452 C 123.270 215.701,123.616 216.241,124.085 216.652 C 124.554 217.064,124.806 217.175,124.645 216.900 C 124.464 216.591,124.586 216.400,124.963 216.400 C 125.360 216.400,125.083 215.910,124.173 215.000 C 122.633 213.459,122.558 213.421,122.200 214.000 M262.876 215.424 C 262.588 215.750,262.178 215.910,261.966 215.779 C 261.754 215.648,261.630 215.779,261.690 216.070 C 261.760 216.406,261.323 216.646,260.500 216.725 C 259.785 216.794,259.200 217.000,259.200 217.182 C 259.200 217.364,258.525 217.620,257.700 217.751 C 256.875 217.882,255.660 218.097,255.000 218.228 C 253.344 218.558,245.891 218.731,245.400 218.451 C 245.180 218.325,244.730 218.184,244.400 218.137 C 244.070 218.089,243.305 217.954,242.700 217.835 C 242.081 217.714,241.600 217.798,241.600 218.026 C 241.600 218.249,241.349 218.199,241.042 217.916 C 240.735 217.632,240.566 217.264,240.666 217.099 C 240.767 216.933,240.523 216.847,240.124 216.908 C 239.726 216.969,239.373 217.194,239.340 217.409 C 239.307 217.624,239.465 217.747,239.690 217.683 C 239.916 217.619,240.407 217.845,240.783 218.184 C 241.158 218.524,241.570 218.697,241.698 218.568 C 241.827 218.440,242.329 218.548,242.814 218.807 C 243.408 219.126,243.608 219.136,243.425 218.840 C 243.270 218.589,243.431 218.400,243.800 218.400 C 244.156 218.400,244.336 218.580,244.200 218.799 C 244.065 219.019,244.279 219.171,244.677 219.136 C 246.398 218.987,248.031 219.227,247.803 219.595 C 247.668 219.813,247.793 219.916,248.079 219.825 C 248.366 219.733,249.860 219.550,251.400 219.417 C 252.940 219.285,254.257 219.010,254.327 218.808 C 254.403 218.586,254.848 218.590,255.450 218.819 C 256.169 219.092,256.368 219.072,256.166 218.745 C 255.973 218.433,256.270 218.349,257.122 218.474 C 257.802 218.574,258.267 218.508,258.155 218.328 C 257.976 218.038,258.869 217.821,259.700 217.953 C 259.865 217.979,260.000 217.820,260.000 217.600 C 260.000 217.380,260.456 217.200,261.013 217.200 C 261.569 217.200,262.129 216.930,262.255 216.600 C 262.382 216.270,262.736 216.000,263.043 216.000 C 263.349 216.000,263.600 215.730,263.600 215.400 C 263.600 214.669,263.541 214.671,262.876 215.424 M125.878 217.577 C 125.987 217.992,126.530 218.446,127.086 218.586 C 127.642 218.725,128.325 219.056,128.604 219.320 C 130.022 220.663,130.886 221.200,131.628 221.200 C 132.079 221.200,132.348 221.360,132.228 221.555 C 132.107 221.751,132.554 221.991,133.222 222.089 C 133.889 222.186,134.528 222.117,134.641 221.933 C 134.755 221.750,134.459 221.600,133.985 221.600 C 133.511 221.600,132.633 221.251,132.034 220.824 C 131.434 220.397,130.693 219.992,130.387 219.924 C 130.080 219.856,129.373 219.383,128.815 218.874 C 127.087 217.297,125.637 216.656,125.878 217.577 M13.493 220.700 C 13.635 221.069,15.262 221.200,19.723 221.200 C 27.533 221.200,27.074 220.500,19.150 220.327 C 14.594 220.228,13.343 220.311,13.493 220.700 M36.581 220.831 C 36.392 221.137,39.283 221.192,46.557 221.019 L 56.800 220.777 56.800 282.988 C 56.800 317.205,56.935 345.200,57.100 345.200 C 57.265 345.200,57.357 335.165,57.305 322.900 C 57.252 310.635,57.342 282.726,57.505 260.880 C 57.690 235.911,57.659 221.018,57.420 220.780 C 56.869 220.230,36.922 220.279,36.581 220.831 M0.185 221.300 C 0.080 221.575,0.041 262.750,0.097 312.800 L 0.200 403.800 96.637 403.901 L 193.074 404.002 193.158 401.401 C 193.213 399.691,193.088 398.800,192.792 398.800 C 192.501 398.800,192.378 399.576,192.444 400.997 C 192.500 402.205,192.423 403.195,192.273 403.197 C 192.123 403.198,148.981 403.200,96.402 403.200 L 0.803 403.200 0.702 312.400 C 0.646 262.460,0.735 221.600,0.900 221.600 C 1.065 221.600,1.200 221.420,1.200 221.200 C 1.200 220.627,0.411 220.705,0.185 221.300 M135.806 222.806 C 136.251 223.298,136.875 223.502,137.640 223.405 C 138.278 223.324,138.800 223.380,138.801 223.529 C 138.801 223.678,140.286 223.824,142.101 223.853 C 145.609 223.909,145.142 223.769,139.200 222.986 C 138.210 222.856,137.130 222.644,136.800 222.514 C 135.414 221.971,135.127 222.056,135.806 222.806 M149.445 222.575 L 148.289 223.085 149.392 223.362 C 149.998 223.514,150.593 223.540,150.714 223.419 C 150.835 223.299,150.689 223.200,150.390 223.200 C 150.039 223.200,150.121 222.993,150.624 222.613 C 151.566 221.900,151.014 221.882,149.445 222.575 M145.862 223.383 C 145.760 223.649,145.972 223.867,146.333 223.867 C 146.695 223.867,147.208 223.649,147.474 223.383 C 147.852 223.006,147.749 222.900,147.002 222.900 C 146.477 222.900,145.964 223.118,145.862 223.383 M192.134 348.300 C 192.053 352.544,192.452 374.886,192.605 374.719 C 192.927 374.368,193.245 350.875,192.930 350.680 C 192.728 350.555,192.680 349.331,192.823 347.927 C 192.964 346.537,193.007 345.265,192.917 345.100 C 192.428 344.205,192.193 345.166,192.134 348.300 M193.728 401.200 C 193.728 402.630,193.801 403.215,193.889 402.500 C 193.978 401.785,193.978 400.615,193.889 399.900 C 193.801 399.185,193.728 399.770,193.728 401.200 " stroke="none" fill="#fcfcfc" fill-rule="evenodd"></path><path id="path1" d="" stroke="none" fill="#100fcfc" fill-rule="evenodd"></path><path id="path2" d="" stroke="none" fill="#100fcfc" fill-rule="evenodd"></path><path id="path3" d="" stroke="none" fill="#100fcfc" fill-rule="evenodd"></path><path id="path4" d="" stroke="none" fill="#100fcfc" fill-rule="evenodd"></path></g></svg>